<svg width="35" height="31" viewBox="0 0 35 31" fill="none" xmlns="http://www.w3.org/2000/svg">
<path d="M2.79976e-06 1.55475C2.79976e-06 0.696083 0.696086 0 1.55475 0H19.8169C20.6756 0 21.3717 0.696083 21.3717 1.55475C21.3717 2.41341 20.6756 3.10949 19.8169 3.10949H1.55475C0.696084 3.10949 2.79976e-06 2.41341 2.79976e-06 1.55475Z" fill="#FF6868"/>
<path d="M21.8363 1.55475C21.8363 0.696083 22.5324 0 23.391 0H33.4453C34.3039 0 35 0.696083 35 1.55475C35 2.41341 34.3039 3.10949 33.4453 3.10949H23.391C22.5324 3.10949 21.8363 2.41341 21.8363 1.55475Z" fill="#FFF568"/>
<path d="M2.79976e-06 6.92465C2.79976e-06 6.06599 0.696086 5.36991 1.55475 5.36991H11.609C12.4676 5.36991 13.1637 6.06599 13.1637 6.92465C13.1637 7.78331 12.4676 8.4794 11.609 8.4794H1.55475C0.696085 8.4794 2.79976e-06 7.78331 2.79976e-06 6.92465Z" fill="#FFB368"/>
<path d="M13.6283 6.92465C13.6283 6.06599 14.3244 5.36991 15.1831 5.36991H23.3789C24.2375 5.36991 24.9336 6.06599 24.9336 6.92465C24.9336 7.78331 24.2375 8.4794 23.3789 8.4794H15.1831C14.3244 8.4794 13.6283 7.78331 13.6283 6.92465Z" fill="#70FF5D"/>
<path d="M25.2434 6.92465C25.2434 6.06599 25.9395 5.36991 26.7981 5.36991H33.4453C34.3039 5.36991 35 6.06599 35 6.92465C35 7.78331 34.3039 8.4794 33.4453 8.4794H26.7981C25.9394 8.4794 25.2434 7.78331 25.2434 6.92465Z" fill="#FFB368"/>
<path d="M35 12.2946C35 11.4359 34.3039 10.7398 33.4453 10.7398H23.391C22.5324 10.7398 21.8363 11.4359 21.8363 12.2946C21.8363 13.1532 22.5324 13.8493 23.391 13.8493H33.4453C34.3039 13.8493 35 13.1532 35 12.2946Z" fill="#FFF568"/>
<path d="M21.5266 12.2946C21.5266 11.4359 20.8305 10.7398 19.9718 10.7398H11.776C10.9173 10.7398 10.2213 11.4359 10.2213 12.2946C10.2213 13.1532 10.9173 13.8493 11.776 13.8493H19.9718C20.8305 13.8493 21.5266 13.1532 21.5266 12.2946Z" fill="#5DC4FF"/>
<path d="M9.75664 12.2946C9.75664 11.4359 9.06055 10.7398 8.20189 10.7398H1.55475C0.696086 10.7398 0 11.4359 0 12.2946C0 13.1532 0.696083 13.8493 1.55474 13.8493H8.20189C9.06055 13.8493 9.75664 13.1532 9.75664 12.2946Z" fill="#FFB368"/>
<path d="M35 17.6645C35 16.8058 34.3039 16.1097 33.4453 16.1097H27.5724C26.7138 16.1097 26.0177 16.8058 26.0177 17.6645C26.0177 18.5231 26.7138 19.2192 27.5724 19.2192H33.4453C34.3039 19.2192 35 18.5231 35 17.6645Z" fill="#5DC4FF"/>
<path d="M25.708 17.6645C25.708 16.8058 25.0119 16.1097 24.1532 16.1097H8.52377C7.66511 16.1097 6.96902 16.8058 6.96902 17.6645C6.96902 18.5231 7.66511 19.2192 8.52377 19.2192H24.1532C25.0119 19.2192 25.708 18.5231 25.708 17.6645Z" fill="#FF6868"/>
<path d="M6.50443 17.6645C6.50443 16.8058 5.80834 16.1097 4.94968 16.1097H1.55475C0.696085 16.1097 1.27976e-06 16.8058 1.27976e-06 17.6645C1.27976e-06 18.5231 0.696084 19.2192 1.55475 19.2192H4.94968C5.80834 19.2192 6.50443 18.5231 6.50443 17.6645Z" fill="#70FF5D"/>
<path d="M4.03036 22.2903C4.60636 22.2903 5.03536 22.4253 5.31736 22.6953C5.59936 22.9653 5.74036 23.3643 5.74036 23.8923C5.74036 24.1743 5.67136 24.4233 5.53336 24.6393C5.39536 24.8493 5.19136 25.0143 4.92136 25.1343C4.65136 25.2483 4.31836 25.3053 3.92236 25.3053L3.95836 24.9003C4.14436 24.9003 4.35736 24.9273 4.59736 24.9813C4.83736 25.0293 5.06836 25.1193 5.29036 25.2513C5.51836 25.3773 5.70436 25.5573 5.84836 25.7913C5.99836 26.0193 6.07336 26.3133 6.07336 26.6733C6.07336 27.0693 6.00736 27.3933 5.87536 27.6453C5.74936 27.8973 5.58136 28.0923 5.37136 28.2303C5.16136 28.3683 4.93636 28.4643 4.69636 28.5183C4.45636 28.5663 4.22536 28.5903 4.00336 28.5903H1.76236C1.60636 28.5903 1.47436 28.5393 1.36636 28.4373C1.26436 28.3293 1.21336 28.1973 1.21336 28.0413V22.8393C1.21336 22.6833 1.26436 22.5543 1.36636 22.4523C1.47436 22.3443 1.60636 22.2903 1.76236 22.2903H4.03036ZM3.86836 23.3523H2.26636L2.38336 23.2083V24.8373L2.27536 24.7563H3.89536C4.06936 24.7563 4.22536 24.6993 4.36336 24.5853C4.50136 24.4713 4.57036 24.3063 4.57036 24.0903C4.57036 23.8323 4.50436 23.6463 4.37236 23.5323C4.24636 23.4123 4.07836 23.3523 3.86836 23.3523ZM3.94036 25.8183H2.30236L2.38336 25.7463V27.6453L2.29336 27.5553H4.00336C4.27936 27.5553 4.49836 27.4833 4.66036 27.3393C4.82236 27.1893 4.90336 26.9673 4.90336 26.6733C4.90336 26.4033 4.84936 26.2083 4.74136 26.0883C4.63336 25.9683 4.50436 25.8933 4.35436 25.8633C4.20436 25.8333 4.06636 25.8183 3.94036 25.8183Z" fill="#5E5E5E"/>
<path d="M11.683 26.1873C11.683 26.6793 11.572 27.1143 11.35 27.4923C11.134 27.8643 10.84 28.1553 10.468 28.3653C10.102 28.5753 9.69103 28.6803 9.23503 28.6803C8.77903 28.6803 8.36503 28.5753 7.99303 28.3653C7.62703 28.1553 7.33303 27.8643 7.11103 27.4923C6.89503 27.1143 6.78703 26.6793 6.78703 26.1873C6.78703 25.6953 6.89503 25.2633 7.11103 24.8913C7.33303 24.5133 7.62703 24.2193 7.99303 24.0093C8.36503 23.7933 8.77903 23.6853 9.23503 23.6853C9.69103 23.6853 10.102 23.7933 10.468 24.0093C10.84 24.2193 11.134 24.5133 11.35 24.8913C11.572 25.2633 11.683 25.6953 11.683 26.1873ZM10.603 26.1873C10.603 25.8813 10.54 25.6173 10.414 25.3953C10.294 25.1673 10.129 24.9903 9.91903 24.8643C9.71503 24.7383 9.48703 24.6753 9.23503 24.6753C8.98303 24.6753 8.75203 24.7383 8.54203 24.8643C8.33803 24.9903 8.17303 25.1673 8.04703 25.3953C7.92703 25.6173 7.86703 25.8813 7.86703 26.1873C7.86703 26.4873 7.92703 26.7513 8.04703 26.9793C8.17303 27.2013 8.33803 27.3753 8.54203 27.5013C8.75203 27.6273 8.98303 27.6903 9.23503 27.6903C9.48703 27.6903 9.71503 27.6273 9.91903 27.5013C10.129 27.3753 10.294 27.2013 10.414 26.9793C10.54 26.7513 10.603 26.4873 10.603 26.1873Z" fill="#5E5E5E"/>
<path d="M17.2992 26.1873C17.2992 26.6793 17.1882 27.1143 16.9662 27.4923C16.7502 27.8643 16.4562 28.1553 16.0842 28.3653C15.7182 28.5753 15.3072 28.6803 14.8512 28.6803C14.3952 28.6803 13.9812 28.5753 13.6092 28.3653C13.2432 28.1553 12.9492 27.8643 12.7272 27.4923C12.5112 27.1143 12.4032 26.6793 12.4032 26.1873C12.4032 25.6953 12.5112 25.2633 12.7272 24.8913C12.9492 24.5133 13.2432 24.2193 13.6092 24.0093C13.9812 23.7933 14.3952 23.6853 14.8512 23.6853C15.3072 23.6853 15.7182 23.7933 16.0842 24.0093C16.4562 24.2193 16.7502 24.5133 16.9662 24.8913C17.1882 25.2633 17.2992 25.6953 17.2992 26.1873ZM16.2192 26.1873C16.2192 25.8813 16.1562 25.6173 16.0302 25.3953C15.9102 25.1673 15.7452 24.9903 15.5352 24.8643C15.3312 24.7383 15.1032 24.6753 14.8512 24.6753C14.5992 24.6753 14.3682 24.7383 14.1582 24.8643C13.9542 24.9903 13.7892 25.1673 13.6632 25.3953C13.5432 25.6173 13.4832 25.8813 13.4832 26.1873C13.4832 26.4873 13.5432 26.7513 13.6632 26.9793C13.7892 27.2013 13.9542 27.3753 14.1582 27.5013C14.3682 27.6273 14.5992 27.6903 14.8512 27.6903C15.1032 27.6903 15.3312 27.6273 15.5352 27.5013C15.7452 27.3753 15.9102 27.2013 16.0302 26.9793C16.1562 26.7513 16.2192 26.4873 16.2192 26.1873Z" fill="#5E5E5E"/>
<path d="M18.8745 28.5903C18.7185 28.5903 18.5895 28.5393 18.4875 28.4373C18.3855 28.3293 18.3345 28.1973 18.3345 28.0413V22.4793C18.3345 22.3233 18.3855 22.1943 18.4875 22.0923C18.5895 21.9843 18.7185 21.9303 18.8745 21.9303C19.0305 21.9303 19.1595 21.9843 19.2615 22.0923C19.3635 22.1943 19.4145 22.3233 19.4145 22.4793V28.0413C19.4145 28.1973 19.3635 28.3293 19.2615 28.4373C19.1595 28.5393 19.0305 28.5903 18.8745 28.5903ZM21.7365 23.7753C21.8745 23.7753 21.9945 23.8323 22.0965 23.9463C22.1985 24.0603 22.2495 24.1713 22.2495 24.2793C22.2495 24.4233 22.1775 24.5583 22.0335 24.6843L19.3245 27.1773L19.2795 25.9353L21.3405 23.9463C21.4545 23.8323 21.5865 23.7753 21.7365 23.7753ZM21.8715 28.5813C21.7155 28.5813 21.5835 28.5213 21.4755 28.4013L19.8105 26.6373L20.6295 25.8813L22.2495 27.6453C22.3635 27.7653 22.4205 27.9003 22.4205 28.0503C22.4205 28.2063 22.3575 28.3353 22.2315 28.4373C22.1115 28.5333 21.9915 28.5813 21.8715 28.5813Z" fill="#5E5E5E"/>
<path d="M24.3855 28.0413C24.3855 28.1973 24.3345 28.3293 24.2325 28.4373C24.1305 28.5393 24.0015 28.5903 23.8455 28.5903C23.6895 28.5903 23.5605 28.5393 23.4585 28.4373C23.3565 28.3293 23.3055 28.1973 23.3055 28.0413V24.3243C23.3055 24.1683 23.3565 24.0393 23.4585 23.9373C23.5605 23.8293 23.6895 23.7753 23.8455 23.7753C24.0015 23.7753 24.1305 23.8293 24.2325 23.9373C24.3345 24.0393 24.3855 24.1683 24.3855 24.3243V28.0413ZM23.8365 23.1903C23.6325 23.1903 23.4885 23.1573 23.4045 23.0913C23.3205 23.0253 23.2785 22.9083 23.2785 22.7403V22.5693C23.2785 22.3953 23.3235 22.2783 23.4135 22.2183C23.5095 22.1523 23.6535 22.1193 23.8455 22.1193C24.0555 22.1193 24.2025 22.1523 24.2865 22.2183C24.3705 22.2843 24.4125 22.4013 24.4125 22.5693V22.7403C24.4125 22.9143 24.3675 23.0343 24.2775 23.1003C24.1875 23.1603 24.0405 23.1903 23.8365 23.1903Z" fill="#5E5E5E"/>
<path d="M27.9704 21.9303C28.1024 21.9303 28.2314 21.9483 28.3574 21.9843C28.4834 22.0203 28.5884 22.0803 28.6724 22.1643C28.7564 22.2423 28.7984 22.3473 28.7984 22.4793C28.7984 22.6293 28.7534 22.7493 28.6634 22.8393C28.5794 22.9233 28.4804 22.9653 28.3664 22.9653C28.3124 22.9653 28.2314 22.9533 28.1234 22.9293C28.0154 22.8993 27.9104 22.8843 27.8084 22.8843C27.6584 22.8843 27.5414 22.9173 27.4574 22.9833C27.3794 23.0493 27.3254 23.1273 27.2954 23.2173C27.2654 23.3013 27.2504 23.3763 27.2504 23.4423V28.0413C27.2504 28.1973 27.1994 28.3293 27.0974 28.4373C26.9954 28.5393 26.8664 28.5903 26.7104 28.5903C26.5544 28.5903 26.4254 28.5393 26.3234 28.4373C26.2214 28.3293 26.1704 28.1973 26.1704 28.0413V23.4513C26.1704 23.0253 26.3204 22.6653 26.6204 22.3713C26.9204 22.0773 27.3704 21.9303 27.9704 21.9303ZM28.0694 23.8653C28.2134 23.8653 28.3334 23.9133 28.4294 24.0093C28.5254 24.0993 28.5734 24.2163 28.5734 24.3603C28.5734 24.5043 28.5254 24.6243 28.4294 24.7203C28.3334 24.8103 28.2134 24.8553 28.0694 24.8553H25.6844C25.5404 24.8553 25.4204 24.8103 25.3244 24.7203C25.2284 24.6243 25.1804 24.5043 25.1804 24.3603C25.1804 24.2163 25.2284 24.0993 25.3244 24.0093C25.4204 23.9133 25.5404 23.8653 25.6844 23.8653H28.0694Z" fill="#5E5E5E"/>
<path d="M32.9971 23.7753C33.1531 23.7753 33.2821 23.8293 33.3841 23.9373C33.4861 24.0393 33.5371 24.1683 33.5371 24.3243V28.1493C33.5371 28.7013 33.4321 29.1393 33.2221 29.4633C33.0181 29.7933 32.7421 30.0303 32.3941 30.1743C32.0461 30.3183 31.6561 30.3903 31.2241 30.3903C31.0321 30.3903 30.8281 30.3753 30.6121 30.3453C30.3961 30.3153 30.2191 30.2703 30.0811 30.2103C29.9011 30.1323 29.7751 30.0333 29.7031 29.9133C29.6371 29.7993 29.6251 29.6763 29.6671 29.5443C29.7211 29.3703 29.8081 29.2503 29.9281 29.1843C30.0481 29.1243 30.1741 29.1183 30.3061 29.1663C30.4021 29.1963 30.5281 29.2413 30.6841 29.3013C30.8401 29.3673 31.0201 29.4003 31.2241 29.4003C31.5001 29.4003 31.7281 29.3613 31.9081 29.2833C32.0941 29.2113 32.2321 29.0853 32.3221 28.9053C32.4181 28.7313 32.4661 28.4913 32.4661 28.1853V27.5823L32.6551 27.7983C32.5531 27.9963 32.4241 28.1613 32.2681 28.2933C32.1181 28.4193 31.9381 28.5153 31.7281 28.5813C31.5181 28.6473 31.2781 28.6803 31.0081 28.6803C30.6901 28.6803 30.4111 28.6083 30.1711 28.4643C29.9371 28.3143 29.7541 28.1103 29.6221 27.8523C29.4901 27.5883 29.4241 27.2883 29.4241 26.9523V24.3243C29.4241 24.1683 29.4751 24.0393 29.5771 23.9373C29.6791 23.8293 29.8081 23.7753 29.9641 23.7753C30.1201 23.7753 30.2491 23.8293 30.3511 23.9373C30.4531 24.0393 30.5041 24.1683 30.5041 24.3243V26.6283C30.5041 27.0183 30.5881 27.2943 30.7561 27.4563C30.9301 27.6123 31.1701 27.6903 31.4761 27.6903C31.6861 27.6903 31.8631 27.6513 32.0071 27.5733C32.1511 27.4893 32.2621 27.3693 32.3401 27.2133C32.4181 27.0513 32.4571 26.8563 32.4571 26.6283V24.3243C32.4571 24.1683 32.5081 24.0393 32.6101 23.9373C32.7121 23.8293 32.8411 23.7753 32.9971 23.7753Z" fill="#5E5E5E"/>
</svg>
